<svg width="10" height="5" viewBox="0 0 10 5" fill="none" xmlns="http://www.w3.org/2000/svg">
  <path d="M0.984696 0.765312L4.7347 4.51531C4.76952 4.55018 4.81088 4.57784 4.85641 4.59671C4.90193 4.61558 4.95073 4.62529 5.00001 4.62529C5.04929 4.62529 5.09809 4.61558 5.14361 4.59671C5.18914 4.57784 5.23049 4.55018 5.26532 4.51531L9.01532 0.765313C9.06783 0.712867 9.10359 0.646022 9.11808 0.57324C9.13258 0.500458 9.12515 0.425012 9.09674 0.356454C9.06834 0.287895 9.02023 0.229307 8.9585 0.188105C8.89678 0.146903 8.82422 0.124942 8.75001 0.125L1.25001 0.125C1.1758 0.124941 1.10324 0.146903 1.04152 0.188105C0.979793 0.229306 0.931684 0.287895 0.903276 0.356453C0.874868 0.425012 0.867442 0.500458 0.881936 0.57324C0.89643 0.646022 0.932192 0.712867 0.984696 0.765312Z" fill="#696868"/>
</svg>
