<svg width="24" height="25" viewBox="0 0 24 25" fill="none" xmlns="http://www.w3.org/2000/svg">
<path d="M15 8.26002L15 17.26C15 17.4589 14.921 17.6497 14.7803 17.7904C14.6397 17.931 14.4489 18.01 14.25 18.01H12L12 21.76C12.0001 21.9084 11.9562 22.0536 11.8738 22.177C11.7914 22.3005 11.6742 22.3967 11.5371 22.4535C11.4 22.5103 11.2491 22.5252 11.1035 22.4962C10.958 22.4672 10.8243 22.3957 10.7194 22.2906L1.71938 13.2906C1.64965 13.221 1.59433 13.1383 1.55658 13.0472C1.51884 12.9562 1.49941 12.8586 1.49941 12.76C1.49941 12.6615 1.51884 12.5639 1.55658 12.4728C1.59433 12.3818 1.64965 12.2991 1.71938 12.2294L10.7194 3.2294C10.8243 3.12439 10.958 3.05286 11.1035 3.02387C11.2491 2.99489 11.4 3.00974 11.5371 3.06655C11.6742 3.12337 11.7914 3.21959 11.8738 3.34303C11.9562 3.46648 12.0001 3.6116 12 3.76002V7.51002H14.25C14.4489 7.51002 14.6397 7.58904 14.7803 7.72969C14.921 7.87034 15 8.06111 15 8.26002ZM17.25 7.51002C17.0511 7.51002 16.8603 7.58904 16.7197 7.72969C16.579 7.87034 16.5 8.06111 16.5 8.26002V17.26C16.5 17.4589 16.579 17.6497 16.7197 17.7904C16.8603 17.931 17.0511 18.01 17.25 18.01C17.4489 18.01 17.6397 17.931 17.7803 17.7904C17.921 17.6497 18 17.4589 18 17.26L18 8.26002C18 8.06111 17.921 7.87034 17.7803 7.72969C17.6397 7.58904 17.4489 7.51002 17.25 7.51002ZM20.25 7.51002C20.0511 7.51002 19.8603 7.58904 19.7197 7.72969C19.579 7.87034 19.5 8.06111 19.5 8.26002L19.5 17.26C19.5 17.4589 19.579 17.6497 19.7197 17.7904C19.8603 17.931 20.0511 18.01 20.25 18.01C20.4489 18.01 20.6397 17.931 20.7803 17.7904C20.921 17.6497 21 17.4589 21 17.26L21 8.26002C21 8.06111 20.921 7.87034 20.7803 7.72969C20.6397 7.58904 20.4489 7.51002 20.25 7.51002Z" fill="#B3B3B3"/>
</svg>
