<svg width="24" height="25" viewBox="0 0 24 25" fill="none" xmlns="http://www.w3.org/2000/svg">
<path d="M11.1928 16.9731C11.2497 17.1102 11.2646 17.261 11.2357 17.4065C11.2069 17.552 11.1355 17.6857 11.0306 17.7906L8.03063 20.7906C7.96097 20.8604 7.87826 20.9157 7.78721 20.9534C7.69616 20.9912 7.59857 21.0106 7.5 21.0106C7.40144 21.0106 7.30385 20.9912 7.2128 20.9534C7.12175 20.9157 7.03903 20.8604 6.96938 20.7906L3.96938 17.7906C3.86437 17.6858 3.79284 17.5521 3.76386 17.4065C3.73487 17.2609 3.74972 17.11 3.80654 16.9729C3.86335 16.8358 3.95957 16.7186 4.08302 16.6362C4.20646 16.5538 4.35158 16.5099 4.5 16.51H6.75L6.75 5.26002C6.75 5.06111 6.82902 4.87034 6.96967 4.72969C7.11033 4.58904 7.30109 4.51002 7.5 4.51002C7.69892 4.51002 7.88968 4.58904 8.03033 4.72969C8.17099 4.87034 8.25 5.06111 8.25 5.26002L8.25 16.51H10.5C10.6483 16.51 10.7933 16.5541 10.9167 16.6365C11.04 16.7189 11.1361 16.8361 11.1928 16.9731ZM20.0306 7.72939L17.0306 4.7294C16.961 4.65966 16.8783 4.60434 16.7872 4.5666C16.6962 4.52886 16.5986 4.50943 16.5 4.50943C16.4014 4.50943 16.3038 4.52886 16.2128 4.5666C16.1218 4.60434 16.039 4.65966 15.9694 4.7294L12.9694 7.72939C12.8644 7.83429 12.7928 7.96798 12.7639 8.11354C12.7349 8.2591 12.7497 8.41 12.8065 8.54711C12.8634 8.68423 12.9596 8.80141 13.083 8.88381C13.2065 8.96621 13.3516 9.01014 13.5 9.01002H15.75L15.75 20.26C15.75 20.4589 15.829 20.6497 15.9697 20.7903C16.1103 20.931 16.3011 21.01 16.5 21.01C16.6989 21.01 16.8897 20.931 17.0303 20.7903C17.171 20.6497 17.25 20.4589 17.25 20.26V9.01002L19.5 9.01002C19.6484 9.01014 19.7935 8.96621 19.917 8.88381C20.0404 8.80141 20.1367 8.68423 20.1935 8.54711C20.2503 8.41 20.2651 8.2591 20.2362 8.11354C20.2072 7.96798 20.1356 7.83429 20.0306 7.72939Z" fill="#277C78"/>
</svg>
